<svg width="19" height="19" viewBox="0 0 19 19" fill="none" xmlns="http://www.w3.org/2000/svg">
<path fill-rule="evenodd" clip-rule="evenodd" d="M9.5601 18.7198C14.5085 18.7198 18.5201 14.7082 18.5201 9.7598C18.5201 4.81133 14.5085 0.799805 9.5601 0.799805C4.61162 0.799805 0.600098 4.81133 0.600098 9.7598C0.600098 11.1931 0.936653 12.5478 1.53504 13.7492C1.69406 14.0685 1.74699 14.4334 1.6548 14.7779L1.12113 16.7725C0.889461 17.6383 1.68158 18.4304 2.54742 18.1988L4.54195 17.6651C4.8865 17.5729 5.25142 17.6259 5.57068 17.7848C6.77208 18.3833 8.12677 18.7198 9.5601 18.7198ZM5.9761 10.8798C5.60497 10.8798 5.3041 11.1807 5.3041 11.5518C5.3041 11.9229 5.60497 12.2238 5.9761 12.2238H10.9041C11.2752 12.2238 11.5761 11.9229 11.5761 11.5518C11.5761 11.1807 11.2752 10.8798 10.9041 10.8798H5.9761ZM5.3041 8.4158C5.3041 8.04468 5.60497 7.7438 5.9761 7.7438H13.1441C13.5152 7.7438 13.8161 8.04468 13.8161 8.4158C13.8161 8.78693 13.5152 9.0878 13.1441 9.0878H5.9761C5.60497 9.0878 5.3041 8.78693 5.3041 8.4158Z" fill="white"/>
</svg>
