<svg width="10" height="10" viewBox="0 0 10 10" fill="none" xmlns="http://www.w3.org/2000/svg">
<path fill-rule="evenodd" clip-rule="evenodd" d="M1.69233 0H7.81219C8.40042 0 8.61427 0.0612515 8.82918 0.176362C9.04409 0.291472 9.21306 0.460442 9.32817 0.675349C9.44328 0.890257 9.50453 1.10358 9.50453 1.69233V5.65784L7.18595 3.51773C7.10181 3.4401 7.00185 3.38163 6.89294 3.34635C6.78403 3.31107 6.66877 3.29982 6.5551 3.31337C6.44142 3.32692 6.33204 3.36495 6.23448 3.42484C6.13691 3.48474 6.05349 3.56507 5.98996 3.6603L4.33723 6.1394L3.12118 5.35791C2.95906 5.25376 2.76452 5.21228 2.57401 5.24124C2.3835 5.27021 2.21009 5.36763 2.08624 5.51527L0.00264021 7.99964C0.00090562 7.93718 2.54288e-05 7.87469 0 7.81219V1.69233C0 1.10358 0.0612515 0.890257 0.176362 0.675349C0.291472 0.460442 0.460441 0.291472 0.675349 0.176362C0.890257 0.0612515 1.10358 0 1.69233 0ZM6.69647 4.50409L9.50453 7.09513V7.81167C9.50453 8.39989 9.44328 8.61374 9.32817 8.82865C9.21562 9.04124 9.04177 9.2151 8.82918 9.32764C8.61427 9.44275 8.40095 9.504 7.81219 9.504H1.69233C1.10358 9.504 0.890257 9.44275 0.675349 9.32764C0.582471 9.27824 0.496388 9.217 0.419255 9.14547L2.74575 6.37173L3.98451 7.168C4.1593 7.28031 4.37121 7.31944 4.57458 7.27697C4.77795 7.2345 4.95649 7.11382 5.07172 6.94095L6.69647 4.50409ZM2.63381 1.58409C2.0477 1.58409 1.58409 2.02341 1.58409 2.63381C1.58409 3.24474 2.04823 3.69621 2.63381 3.69621C3.23207 3.69621 3.69621 3.24474 3.69621 2.63381C3.69621 2.02341 3.23207 1.58409 2.63381 1.58409Z" fill="#F7F2FF"/>
</svg>
