<svg width="96" height="102" viewBox="0 0 96 102" fill="none" xmlns="http://www.w3.org/2000/svg">
<path d="M94.9249 51.9304L81.6565 44.8176L92.2536 37.675C92.8546 37.2702 93.195 36.5765 93.1483 35.8536C93.1016 35.1306 92.6745 34.4867 92.0262 34.1626L62.1392 19.2152C61.5076 18.8992 60.7566 18.9329 60.1548 19.3054L48.0001 26.8344L35.8453 19.3054C35.2441 18.9329 34.4929 18.8992 33.8609 19.2152L3.97364 34.1629C3.3254 34.487 2.89831 35.1309 2.85157 35.8539C2.80484 36.5768 3.14527 37.2702 3.74624 37.6752L14.3434 44.8179L1.07501 51.9307C0.426763 52.2782 0.0162433 52.9479 0.000485381 53.6831C-0.0155442 54.4183 0.366449 55.1048 0.998937 55.4797L30.6007 73.0207C30.9204 73.2104 31.2796 73.3054 31.6393 73.3054C31.97 73.3054 32.3011 73.225 32.6022 73.0636L45.9624 65.9017V96.3008L20.2227 83.4011V71.6457C20.2227 70.5204 19.3107 69.608 18.1851 69.608C17.0595 69.608 16.1474 70.5204 16.1474 71.6457V84.659C16.1474 85.43 16.5829 86.1353 17.2722 86.4807L47.0869 101.422C47.1062 101.432 47.1263 101.439 47.1456 101.448C47.1774 101.462 47.2092 101.476 47.2415 101.489C47.2921 101.509 47.3429 101.527 47.3942 101.543C47.4255 101.553 47.4564 101.563 47.4882 101.571C47.5442 101.586 47.6007 101.597 47.6575 101.606C47.6863 101.611 47.7145 101.617 47.7436 101.621C47.8199 101.631 47.8968 101.636 47.9737 101.637C47.983 101.637 47.9919 101.639 48.0012 101.639C48.0878 101.639 48.1748 101.632 48.2617 101.62C48.2832 101.617 48.3044 101.613 48.3261 101.609C48.3897 101.599 48.453 101.586 48.516 101.569C48.5453 101.562 48.5739 101.553 48.6029 101.544C48.657 101.527 48.7105 101.508 48.7638 101.486C48.7956 101.473 48.8268 101.46 48.8581 101.445C48.8763 101.437 48.8947 101.431 48.9127 101.422L78.7274 86.4804C79.4167 86.1351 79.8522 85.4298 79.8522 84.6587V71.6454C79.8522 70.5201 78.9401 69.6078 77.8145 69.6078C76.6889 69.6078 75.7769 70.5201 75.7769 71.6454V83.4008L50.0375 96.3V65.9011L63.3977 73.0631C63.6987 73.2245 64.0299 73.3049 64.3606 73.3049C64.7203 73.3049 65.0794 73.2098 65.3992 73.0202L95.0009 55.4792C95.6334 55.1045 96.0151 54.4177 95.9994 53.6825C95.9839 52.9473 95.5731 52.2779 94.9249 51.9304ZM48.0001 60.1283L22.4647 44.9972L48.0001 31.5348L73.5354 44.9972L48.0001 60.1283ZM61.3337 23.369L87.0818 36.2464L77.6866 42.5787L52.099 29.0888L61.3337 23.369ZM34.6662 23.369L43.9006 29.0891L18.313 42.5789L8.91809 36.2464L34.6662 23.369ZM31.6893 68.9283L6.18464 53.8151L18.3481 47.2946L43.8528 62.4075L31.6893 68.9283ZM64.3106 68.9283L52.1471 62.4078L77.6518 47.2949L89.8152 53.8154L64.3106 68.9283Z" fill="#D1C8EB"/>
<path d="M47.166 39.9795C48.6358 39.9795 49.929 40.5227 50.9707 41.5645C52.0121 42.6061 52.5547 43.8986 52.5547 45.3682C52.5547 46.3436 52.3019 47.2619 51.7959 48.0918L51.7949 48.0908C51.3233 48.8885 50.6835 49.5364 49.8896 50.0205L49.8809 50.0254C49.0567 50.5199 48.1395 50.7568 47.166 50.7568C45.6962 50.7568 44.404 50.2136 43.3623 49.1719C42.3206 48.1302 41.7773 46.838 41.7773 45.3682C41.7773 43.8984 42.3206 42.6061 43.3623 41.5645C44.404 40.5228 45.6962 39.9795 47.166 39.9795ZM48.4072 1.59961C51.1928 1.59964 53.6883 2.15463 55.8477 3.31641L56.2451 3.53711C58.2054 4.66587 59.7571 6.18603 60.8691 8.09375C62.0726 10.1329 62.6592 12.4371 62.6592 14.9658C62.6592 16.7303 62.3858 18.368 61.8174 19.8613L61.8184 19.8623C61.2712 21.3379 60.472 22.6616 59.4258 23.8262C58.4116 24.9713 57.1975 25.9718 55.7959 26.833C54.5821 27.5917 53.6576 28.3643 52.9873 29.1357L52.9795 29.1436C52.3444 29.8626 51.871 30.7314 51.5693 31.7744C51.2606 32.8421 51.0762 34.2385 51.0479 35.9951V37.6387H42.9297V35.958C42.96 33.0668 43.261 30.6565 43.8887 28.79C44.505 26.9573 45.4042 25.4064 46.6191 24.1914C47.745 23.0656 49.0799 22.0444 50.6104 21.123C51.3777 20.654 52.0636 20.1028 52.6709 19.4697C53.2419 18.8598 53.6935 18.1572 54.0273 17.3535L54.0312 17.3457L54.0352 17.3369C54.3651 16.571 54.541 15.6988 54.541 14.7002C54.541 13.4794 54.2577 12.4934 53.7422 11.6865C53.1989 10.8362 52.4799 10.1868 51.5635 9.72266C50.6392 9.2545 49.5959 9.00882 48.4072 9.00879C47.396 9.00879 46.4233 9.21754 45.4775 9.64062C44.6026 10.032 43.8578 10.6498 43.2393 11.5352C42.672 12.3471 42.2871 13.4904 42.1807 15.0605L42.0928 16.3662H33.7324L33.8018 14.9004C33.9297 12.1812 34.639 9.777 35.9824 7.74512L35.9863 7.73926C37.3223 5.74362 39.0879 4.21123 41.2598 3.1582L41.2627 3.15625C43.4347 2.11106 45.8247 1.59961 48.4072 1.59961Z" fill="#6F5E90" stroke="white" stroke-width="2.8"/>
<path d="M33.2441 44.3019C34.0104 44.0231 34.7927 44.0625 35.5312 44.4069C36.2699 44.7513 36.8031 45.3259 37.0821 46.0923C37.2651 46.5955 37.3078 47.1193 37.2054 47.6448C37.1124 48.1545 36.9011 48.6188 36.5777 49.0237L36.5722 49.0288C36.233 49.4471 35.797 49.7463 35.2926 49.93C34.5261 50.2089 33.7432 50.1698 33.0045 49.8254C32.266 49.481 31.733 48.907 31.454 48.1408C31.175 47.3744 31.2142 46.5914 31.5586 45.8528C31.9031 45.1141 32.4777 44.5809 33.2441 44.3019ZM27.2636 26.0576C28.6096 25.5678 29.9267 25.3933 31.1971 25.5779L31.1977 25.5766C32.4553 25.756 33.5725 26.2379 34.5226 27.028C35.4822 27.8178 36.1812 28.8468 36.6301 30.0801C36.9419 30.9369 37.1013 31.7881 37.0895 32.6274L37.0908 32.6279C37.0858 33.4516 36.9287 34.247 36.6226 35.0078L36.6238 35.0084C36.3306 35.7517 35.9142 36.4567 35.3847 37.1232L35.3835 37.1226C34.9592 37.6668 34.6764 38.1604 34.5073 38.6013L34.5038 38.6088C34.3458 39.0107 34.2774 39.4551 34.3114 39.9561C34.3465 40.4753 34.4906 41.1359 34.7724 41.9509L35.1542 42.9998L30.776 44.5933L30.3849 43.5187C29.8998 42.1413 29.6193 40.9237 29.5938 39.895C29.5691 38.8916 29.7313 37.9615 30.1174 37.1333C30.4656 36.3867 30.9318 35.658 31.5063 34.9474C31.7704 34.6159 31.9845 34.2624 32.1507 33.8856C32.2994 33.5362 32.3835 33.1651 32.4013 32.7666L32.4019 32.7539L32.4067 32.6129C32.4076 32.2821 32.3447 31.9287 32.2061 31.5479C32.014 31.0203 31.744 30.6558 31.4158 30.4045C31.0582 30.1309 30.6595 29.9691 30.2022 29.9141C29.7388 29.8583 29.2541 29.9141 28.7359 30.1027C28.3011 30.261 27.9152 30.502 27.573 30.8336C27.2707 31.1266 27.0534 31.4957 26.9271 31.9687C26.8174 32.3799 26.8232 32.9252 27.0314 33.6455L27.2907 34.5435L22.8042 36.1765L22.4917 35.1751C22.0737 33.8332 21.9891 32.527 22.2874 31.2817L22.2885 31.2761C22.5877 30.058 23.1819 28.9896 24.0589 28.0856L24.061 28.0828C24.9372 27.185 26.0122 26.5131 27.2636 26.0576Z" fill="#6F5E90" stroke="white" stroke-width="2"/>
<path d="M61.1289 43.9387C61.8951 44.2177 62.4691 44.7508 62.8135 45.4893C63.1579 46.2279 63.1971 47.0109 62.9181 47.7773C62.7349 48.2803 62.4309 48.7091 62.0147 49.0458C61.6158 49.3765 61.1555 49.5964 60.6475 49.6986L60.6401 49.699C60.1112 49.8014 59.585 49.7503 59.0805 49.5668C58.3141 49.2878 57.7394 48.7546 57.395 48.0159C57.0507 47.2775 57.0113 46.4951 57.2901 45.7288C57.569 44.9624 58.1023 44.3878 58.8409 44.0434C59.5796 43.6989 60.3625 43.6598 61.1289 43.9387ZM68.2748 26.1186C69.6208 26.6086 70.7419 27.3215 71.5964 28.2795L71.5977 28.279C72.4457 29.2247 72.9918 30.3119 73.2117 31.5279C73.4393 32.7498 73.3132 33.9874 72.8643 35.2207C72.5524 36.0775 72.1275 36.832 71.579 37.4673L71.5795 37.4686C71.0463 38.0963 70.4146 38.6046 69.6912 38.9907L69.6917 38.9919C68.9893 39.3728 68.2171 39.6453 67.3831 39.8155L67.3826 39.8142C66.7077 39.9584 66.1738 40.1547 65.7609 40.3838L65.7534 40.3873C65.374 40.5936 65.036 40.8901 64.74 41.2956C64.4331 41.716 64.1189 42.3146 63.8109 43.1201L63.4291 44.169L59.0509 42.5755L59.442 41.5009C59.9559 40.1339 60.5236 39.0208 61.1654 38.2165C61.7914 37.432 62.5135 36.8237 63.3416 36.4375C64.0883 36.0893 64.9138 35.8308 65.8107 35.6557C66.226 35.5715 66.6173 35.4384 66.9868 35.2566C67.3253 35.0845 67.6283 34.8543 67.8981 34.5604L67.9067 34.5511L68.001 34.4461C68.2143 34.1933 68.3933 33.8822 68.5319 33.5014C68.7239 32.9738 68.7514 32.5209 68.6614 32.1175C68.5634 31.678 68.362 31.2978 68.0471 30.9617C67.7278 30.6211 67.3207 30.3524 66.8025 30.1637C66.3677 30.0055 65.9171 29.942 65.4419 29.9761C65.022 30.0063 64.6182 30.1493 64.2175 30.4305C63.8692 30.6749 63.523 31.0964 63.2195 31.7819L62.8409 32.6366L58.3544 31.0037L58.7587 30.0357C59.301 28.739 60.0758 27.6841 61.1048 26.9218L61.1093 26.9182C62.1214 26.1774 63.2634 25.741 64.5163 25.6122L64.5197 25.6113C65.768 25.4869 67.0233 25.6631 68.2748 26.1186Z" fill="#6F5E90" stroke="white" stroke-width="2"/>
</svg>
