<svg width="10" height="11" viewBox="0 0 10 11" fill="none" xmlns="http://www.w3.org/2000/svg">
<path fill-rule="evenodd" clip-rule="evenodd" d="M6.6047 4.44063e-05C6.92971 -0.00192167 7.2517 0.0614172 7.55203 0.186241C7.85232 0.31106 8.12477 0.494795 8.35378 0.72651C8.58274 0.958211 8.76365 1.23328 8.88638 1.53562C9.00907 1.83795 9.07123 2.16173 9.06926 2.48823C9.06734 2.81474 9.00139 3.13774 8.8751 3.43856C8.7492 3.73851 8.5657 4.01063 8.33491 4.23909L4.46678 8.1481L4.46419 8.15064C4.1857 8.42376 3.8382 8.62589 3.43386 8.63395C3.02354 8.64211 2.65757 8.44862 2.35141 8.14157C1.99142 7.78051 1.89254 7.34707 1.94463 6.95986C1.99393 6.59342 2.1755 6.27322 2.3747 6.06514L2.37732 6.0624L5.32853 3.0759C5.51486 2.88734 5.81875 2.88553 6.00734 3.07186C6.19589 3.2582 6.19771 3.56211 6.01138 3.75067L3.06597 6.73133C2.99127 6.81039 2.91502 6.94695 2.89606 7.08783C2.87972 7.20931 2.90309 7.33522 3.03122 7.46371C3.21317 7.64621 3.34101 7.67559 3.41476 7.67415C3.49413 7.67256 3.62019 7.63291 3.78968 7.46755L7.65826 3.55809C7.79957 3.41851 7.91242 3.25165 7.98994 3.06696C8.0675 2.88225 8.10811 2.6836 8.10931 2.48256C8.11046 2.28152 8.07221 2.08235 7.99685 1.89666C7.92149 1.71098 7.81061 1.54265 7.67093 1.40128C7.5312 1.25993 7.3655 1.14834 7.18358 1.07271C7.00162 0.997091 6.80688 0.95884 6.61051 0.96003C6.41419 0.961216 6.21994 1.00182 6.03893 1.07965C5.85792 1.15747 5.69357 1.27105 5.55562 1.41408L5.55158 1.41827L1.65832 5.35805L1.65585 5.3605C1.43803 5.57463 1.26414 5.83075 1.14458 6.11419C1.02501 6.39758 0.962238 6.70248 0.960059 7.01098C0.95788 7.31952 1.01634 7.62533 1.1319 7.91055C1.24023 8.17786 1.50042 8.53728 1.73109 8.77071C1.9681 9.01056 2.37501 9.32055 2.63191 9.42715C2.91218 9.54346 3.2123 9.60211 3.51484 9.59995C3.81739 9.59774 4.11662 9.53472 4.39517 9.41438C4.67376 9.29405 4.92629 9.11866 5.13792 8.89819L5.14032 8.8957L8.77858 5.21391C8.96491 5.02536 9.2688 5.02354 9.45739 5.20987C9.64594 5.39621 9.64776 5.70015 9.46142 5.88869L5.82797 9.56563C5.52874 9.87663 5.17123 10.1249 4.7759 10.2957C4.37952 10.4669 3.95318 10.5568 3.52179 10.5599C3.09039 10.563 2.66282 10.4794 2.26397 10.3139C1.84174 10.1386 1.33026 9.73085 1.04824 9.44544C0.75987 9.15365 0.412331 8.69098 0.242176 8.27102C0.0792635 7.86898 -0.00298447 7.43842 8.27296e-05 7.00421C0.00314993 6.57005 0.0914747 6.14064 0.26007 5.74104C0.428195 5.3425 0.672884 4.9813 0.980257 4.67847L4.86677 0.745427C5.09246 0.511993 5.36194 0.325739 5.65978 0.197699C5.95853 0.069246 6.27974 0.00201241 6.6047 4.44063e-05Z" fill="#F7F2FF"/>
</svg>
